<svg width="150" height="80" viewBox="0 0 150 80" fill="none" xmlns="http://www.w3.org/2000/svg">
<path d="M89.2765 13.8374L88.2412 13.7282M89.505 31.462L90.9218 31.6117L84.4034 30.9234L89.505 31.462ZM89.505 31.462L85.7993 24.6707L89.505 31.462ZM89.505 31.462L89.4218 25.0531L89.505 31.462ZM82.9866 30.7739L84.4034 30.9234L82.9866 30.7739ZM84.4034 30.9234L85.7993 24.6707L84.4034 30.9234ZM84.4034 30.9234L89.4218 25.0531L84.4034 30.9234ZM85.7993 24.6707L89.4218 25.0531L85.7993 24.6707ZM85.7993 24.6707L86.7762 20.2936L85.7993 24.6707ZM85.7993 24.6707L89.3635 20.5668L85.7993 24.6707ZM89.4218 25.0531L89.3635 20.5668L89.4218 25.0531ZM89.4218 25.0531L86.7762 20.2936L89.4218 25.0531ZM86.7762 20.2936L87.2643 18.1052L86.7762 20.2936ZM86.7762 20.2936L89.3635 20.5668L86.7762 20.2936ZM87.2643 18.1052L83.8182 19.9814L89.3635 20.5668L87.2643 18.1052ZM87.2643 18.1052L89.3348 18.3237L87.2643 18.1052ZM87.2643 18.1052L88.2412 13.7282L87.2643 18.1052ZM89.3348 18.3237L92.3215 20.8791L89.3635 20.5668L89.3348 18.3237ZM89.3348 18.3237L89.3635 20.5668L89.3348 18.3237ZM89.3348 18.3237L89.2765 13.8374L89.3348 18.3237ZM89.2765 13.8374L89.2182 9.35121L88.2412 13.7282L89.2765 13.8374ZM89.2765 13.8374L91.3967 15.9813L85.7278 15.3828L88.2412 13.7282L89.2765 13.8374Z" stroke="black"/>
<path d="M24.833 29.2874L23.804 29.4449M29.4561 46.2849L30.8648 46.0692L24.3846 47.0613L29.4561 46.2849ZM29.4561 46.2849L24.1734 40.6554L29.4561 46.2849ZM29.4561 46.2849L27.7749 40.104L29.4561 46.2849ZM22.9758 47.277L24.3846 47.0613L22.9758 47.277ZM24.3846 47.0613L24.1734 40.6554L24.3846 47.0613ZM24.3846 47.0613L27.7749 40.104L24.3846 47.0613ZM24.1734 40.6554L27.7749 40.104L24.1734 40.6554ZM24.1734 40.6554L24.0257 36.1712L24.1734 40.6554ZM24.1734 40.6554L26.5982 35.7773L24.1734 40.6554ZM27.7749 40.104L26.5982 35.7773L27.7749 40.104ZM27.7749 40.104L24.0257 36.1712L27.7749 40.104ZM24.0257 36.1712L23.9518 33.9291L24.0257 36.1712ZM24.0257 36.1712L26.5982 35.7773L24.0257 36.1712ZM23.9518 33.9291L21.0857 36.6213L26.5982 35.7773L23.9518 33.9291ZM23.9518 33.9291L26.0097 33.614L23.9518 33.9291ZM23.9518 33.9291L23.804 29.4449L23.9518 33.9291ZM26.0097 33.614L29.5382 35.3272L26.5982 35.7773L26.0097 33.614ZM26.0097 33.614L26.5982 35.7773L26.0097 33.614ZM26.0097 33.614L24.833 29.2874L26.0097 33.614ZM24.833 29.2874L23.6562 24.9608L23.804 29.4449L24.833 29.2874ZM24.833 29.2874L27.4198 30.8228L21.7848 31.6856L23.804 29.4449L24.833 29.2874Z" stroke="black"/>
<path d="M56.3191 4.85107L55.3431 4.96948M60.3067 21.9983L61.643 21.8362L55.4961 22.5819L60.3067 21.9983ZM60.3067 21.9983L55.4405 16.1774L60.3067 21.9983ZM60.3067 21.9983L58.8567 15.763L60.3067 21.9983ZM54.1599 22.744L55.4961 22.5819L54.1599 22.744ZM55.4961 22.5819L55.4405 16.1774L55.4961 22.5819ZM55.4961 22.5819L58.8567 15.763L55.4961 22.5819ZM55.4405 16.1774L58.8567 15.763L55.4405 16.1774ZM55.4405 16.1774L55.4016 11.6942L55.4405 16.1774ZM55.4405 16.1774L57.8417 11.3982L55.4405 16.1774ZM58.8567 15.763L57.8417 11.3982L58.8567 15.763ZM58.8567 15.763L55.4016 11.6942L58.8567 15.763ZM55.4016 11.6942L55.382 9.45262L55.4016 11.6942ZM55.4016 11.6942L57.8417 11.3982L55.4016 11.6942ZM55.382 9.45262L52.6128 12.0325L57.8417 11.3982L55.382 9.45262ZM55.382 9.45262L57.3341 9.21584L55.382 9.45262ZM55.382 9.45262L55.3431 4.96948L55.382 9.45262ZM57.3341 9.21584L60.6304 11.0599L57.8417 11.3982L57.3341 9.21584ZM57.3341 9.21584L57.8417 11.3982L57.3341 9.21584ZM57.3341 9.21584L56.3191 4.85107L57.3341 9.21584ZM56.3191 4.85107L55.3041 0.486313L55.3431 4.96948L56.3191 4.85107ZM56.3191 4.85107L58.7295 6.48204L53.3844 7.13047L55.3431 4.96948L56.3191 4.85107Z" stroke="black"/>
<path fill-rule="evenodd" clip-rule="evenodd" d="M13.2124 50.7765C34.0934 39.3998 42.0719 31.7402 49.5874 15.7702C53.3562 18.6914 57.5444 23.2435 57.5444 23.2435C57.5444 23.2435 70.4272 3.577 70.4272 4.75694C70.4272 5.9369 82.6881 21.2071 90.509 31.5034C92.7365 28.059 93.9901 26.1345 96.572 23.2435L123.474 50.7765H13.2124ZM51.103 20.4901C45.2086 29.3144 41.5475 34.0844 33.2945 41.7299C33.2945 41.7299 43.5249 41.3365 43.9038 41.7299C44.2827 42.1232 50.7241 44.4832 51.103 44.4832C51.4819 44.4832 56.0288 42.9099 56.4077 42.9099C56.7866 42.9099 61.3335 43.6965 61.3335 43.6965L58.6811 38.5833L59.4389 34.65C59.4389 34.65 59.06 33.8633 58.6811 32.6833C58.3022 31.5034 54.892 29.93 54.892 28.3567C54.892 26.7834 56.4077 24.8168 56.4077 24.8168L51.103 20.4901ZM69.6694 9.47694L59.8179 24.8168L72.7006 34.2567L77.2476 36.2234L78.3839 34.65V31.8967L76.8686 28.75L75.7319 25.9968L77.2476 27.1768L78.3839 25.6035L76.4897 20.4901L73.0796 15.7702L69.6694 9.47694ZM95.8142 26.3901L92.7823 31.8967H92.4039L95.0564 37.01L98.8453 39.7633L107.939 44.4833L107.56 42.1233L102.634 36.6166L98.8453 33.47L97.7083 28.3568L96.572 26.3901H95.8142Z" fill="black" stroke="black"/>
<path d="M89.2765 13.8374L88.2412 13.7282M89.505 31.462L90.9218 31.6117L84.4034 30.9234L89.505 31.462ZM89.505 31.462L85.7993 24.6707L89.505 31.462ZM89.505 31.462L89.4218 25.0531L89.505 31.462ZM82.9866 30.7739L84.4034 30.9234L82.9866 30.7739ZM84.4034 30.9234L85.7993 24.6707L84.4034 30.9234ZM84.4034 30.9234L89.4218 25.0531L84.4034 30.9234ZM85.7993 24.6707L89.4218 25.0531L85.7993 24.6707ZM85.7993 24.6707L86.7762 20.2936L85.7993 24.6707ZM85.7993 24.6707L89.3635 20.5668L85.7993 24.6707ZM89.4218 25.0531L89.3635 20.5668L89.4218 25.0531ZM89.4218 25.0531L86.7762 20.2936L89.4218 25.0531ZM86.7762 20.2936L87.2643 18.1052L86.7762 20.2936ZM86.7762 20.2936L89.3635 20.5668L86.7762 20.2936ZM87.2643 18.1052L83.8182 19.9814L89.3635 20.5668L87.2643 18.1052ZM87.2643 18.1052L89.3348 18.3237L87.2643 18.1052ZM87.2643 18.1052L88.2412 13.7282L87.2643 18.1052ZM89.3348 18.3237L92.3215 20.8791L89.3635 20.5668L89.3348 18.3237ZM89.3348 18.3237L89.3635 20.5668L89.3348 18.3237ZM89.3348 18.3237L89.2765 13.8374L89.3348 18.3237ZM89.2765 13.8374L89.2182 9.35121L88.2412 13.7282L89.2765 13.8374ZM89.2765 13.8374L91.3967 15.9813L85.7278 15.3828L88.2412 13.7282L89.2765 13.8374Z" stroke="black"/>
<path d="M24.833 29.2874L23.804 29.4449M29.4561 46.2849L30.8648 46.0692L24.3846 47.0613L29.4561 46.2849ZM29.4561 46.2849L24.1734 40.6554L29.4561 46.2849ZM29.4561 46.2849L27.7749 40.104L29.4561 46.2849ZM22.9758 47.277L24.3846 47.0613L22.9758 47.277ZM24.3846 47.0613L24.1734 40.6554L24.3846 47.0613ZM24.3846 47.0613L27.7749 40.104L24.3846 47.0613ZM24.1734 40.6554L27.7749 40.104L24.1734 40.6554ZM24.1734 40.6554L24.0257 36.1712L24.1734 40.6554ZM24.1734 40.6554L26.5982 35.7773L24.1734 40.6554ZM27.7749 40.104L26.5982 35.7773L27.7749 40.104ZM27.7749 40.104L24.0257 36.1712L27.7749 40.104ZM24.0257 36.1712L23.9518 33.9291L24.0257 36.1712ZM24.0257 36.1712L26.5982 35.7773L24.0257 36.1712ZM23.9518 33.9291L21.0857 36.6213L26.5982 35.7773L23.9518 33.9291ZM23.9518 33.9291L26.0097 33.614L23.9518 33.9291ZM23.9518 33.9291L23.804 29.4449L23.9518 33.9291ZM26.0097 33.614L29.5382 35.3272L26.5982 35.7773L26.0097 33.614ZM26.0097 33.614L26.5982 35.7773L26.0097 33.614ZM26.0097 33.614L24.833 29.2874L26.0097 33.614ZM24.833 29.2874L23.6562 24.9608L23.804 29.4449L24.833 29.2874ZM24.833 29.2874L27.4198 30.8228L21.7848 31.6856L23.804 29.4449L24.833 29.2874Z" stroke="black"/>
<path d="M56.3191 4.85107L55.3431 4.96948M60.3067 21.9983L61.643 21.8362L55.4961 22.5819L60.3067 21.9983ZM60.3067 21.9983L55.4405 16.1774L60.3067 21.9983ZM60.3067 21.9983L58.8567 15.763L60.3067 21.9983ZM54.1599 22.744L55.4961 22.5819L54.1599 22.744ZM55.4961 22.5819L55.4405 16.1774L55.4961 22.5819ZM55.4961 22.5819L58.8567 15.763L55.4961 22.5819ZM55.4405 16.1774L58.8567 15.763L55.4405 16.1774ZM55.4405 16.1774L55.4016 11.6942L55.4405 16.1774ZM55.4405 16.1774L57.8417 11.3982L55.4405 16.1774ZM58.8567 15.763L57.8417 11.3982L58.8567 15.763ZM58.8567 15.763L55.4016 11.6942L58.8567 15.763ZM55.4016 11.6942L55.382 9.45262L55.4016 11.6942ZM55.4016 11.6942L57.8417 11.3982L55.4016 11.6942ZM55.382 9.45262L52.6128 12.0325L57.8417 11.3982L55.382 9.45262ZM55.382 9.45262L57.3341 9.21584L55.382 9.45262ZM55.382 9.45262L55.3431 4.96948L55.382 9.45262ZM57.3341 9.21584L60.6304 11.0599L57.8417 11.3982L57.3341 9.21584ZM57.3341 9.21584L57.8417 11.3982L57.3341 9.21584ZM57.3341 9.21584L56.3191 4.85107L57.3341 9.21584ZM56.3191 4.85107L55.3041 0.486313L55.3431 4.96948L56.3191 4.85107ZM56.3191 4.85107L58.7295 6.48204L53.3844 7.13047L55.3431 4.96948L56.3191 4.85107Z" stroke="black"/>
<path fill-rule="evenodd" clip-rule="evenodd" d="M13.2124 50.7765C34.0934 39.3998 42.0719 31.7402 49.5874 15.7702C53.3562 18.6914 57.5444 23.2435 57.5444 23.2435C57.5444 23.2435 70.4272 3.577 70.4272 4.75694C70.4272 5.9369 82.6881 21.2071 90.509 31.5034C92.7365 28.059 93.9901 26.1345 96.572 23.2435L123.474 50.7765H13.2124ZM51.103 20.4901C45.2086 29.3144 41.5475 34.0844 33.2945 41.7299C33.2945 41.7299 43.5249 41.3365 43.9038 41.7299C44.2827 42.1232 50.7241 44.4832 51.103 44.4832C51.4819 44.4832 56.0288 42.9099 56.4077 42.9099C56.7866 42.9099 61.3335 43.6965 61.3335 43.6965L58.6811 38.5833L59.4389 34.65C59.4389 34.65 59.06 33.8633 58.6811 32.6833C58.3022 31.5034 54.892 29.93 54.892 28.3567C54.892 26.7834 56.4077 24.8168 56.4077 24.8168L51.103 20.4901ZM69.6694 9.47694L59.8179 24.8168L72.7006 34.2567L77.2476 36.2234L78.3839 34.65V31.8967L76.8686 28.75L75.7319 25.9968L77.2476 27.1768L78.3839 25.6035L76.4897 20.4901L73.0796 15.7702L69.6694 9.47694ZM95.8142 26.3901L92.7823 31.8967H92.4039L95.0564 37.01L98.8453 39.7633L107.939 44.4833L107.56 42.1233L102.634 36.6166L98.8453 33.47L97.7083 28.3568L96.572 26.3901H95.8142Z" fill="black" stroke="black"/>
<path d="M14.8975 58.6855C14.3835 59.2544 13.8032 59.8902 13.1565 60.5929C12.5099 61.279 11.8301 61.99 11.1172 62.7263C10.4208 63.4457 9.72441 64.1569 9.02804 64.8596C8.33166 65.5624 7.67674 66.2149 7.06327 66.8173C7.7762 67.3192 8.53063 67.9383 9.32648 68.6745C10.1223 69.4107 10.9016 70.1971 11.6643 71.0337C12.427 71.8704 13.14 72.7237 13.8032 73.5937C14.483 74.4638 15.0467 75.292 15.4944 76.0784H12.6591C12.1617 75.292 11.5897 74.5056 10.9431 73.7192C10.2964 72.9161 9.60837 72.1548 8.87881 71.4353C8.16589 70.6991 7.43633 70.0214 6.69021 69.4024C5.96068 68.7833 5.24772 68.2562 4.55135 67.8212V76.0784H2.13892V58.6855H4.55135V66.3655C5.13166 65.8133 5.77 65.1943 6.46638 64.5082C7.16275 63.8055 7.85081 63.1027 8.53063 62.4C9.21045 61.6973 9.84876 61.028 10.4457 60.3922C11.0591 59.7396 11.5731 59.1707 11.9876 58.6855H14.8975ZM30.1452 76.0784C29.8633 75.3255 29.5981 74.5893 29.3494 73.8698C29.1007 73.1336 28.8437 72.389 28.5784 71.6361H20.7691L19.2022 76.0784H16.6903C17.3535 74.2379 17.9753 72.5396 18.5556 70.9835C19.1359 69.4107 19.6996 67.9216 20.2468 66.5161C20.8105 65.1106 21.366 63.772 21.9131 62.5004C22.4603 61.212 23.0323 59.9404 23.6292 58.6855H25.8426C26.4395 59.9404 27.0116 61.212 27.5587 62.5004C28.1059 63.772 28.653 65.1106 29.2002 66.5161C29.7639 67.9216 30.3359 69.4107 30.9162 70.9835C31.4965 72.5396 32.1182 74.2379 32.7815 76.0784H30.1452ZM27.882 69.6282C27.3514 68.1726 26.8208 66.7671 26.2903 65.4118C25.7763 64.0398 25.2374 62.7263 24.6737 61.4714C24.0934 62.7263 23.5379 64.0398 23.0074 65.4118C22.4934 66.7671 21.9794 68.1726 21.4654 69.6282H27.882ZM39.7722 76.229C39.424 76.229 39.0427 76.2206 38.6282 76.2039C38.2302 76.1872 37.824 76.1621 37.4095 76.1286C37.0116 76.0951 36.6137 76.0533 36.2157 76.0031C35.8178 75.9529 35.4531 75.886 35.1214 75.8024V58.9365C35.4531 58.8528 35.8178 58.7859 36.2157 58.7357C36.6137 58.6855 37.0116 58.6437 37.4095 58.6102C37.824 58.5767 38.2302 58.5516 38.6282 58.5349C39.0261 58.5182 39.3992 58.5098 39.7473 58.5098C40.7422 58.5098 41.6707 58.5851 42.5328 58.7357C43.4116 58.8863 44.166 59.1456 44.796 59.5137C45.4427 59.8651 45.9484 60.3336 46.3131 60.9192C46.6779 61.5049 46.8603 62.2243 46.8603 63.0777C46.8603 64.0314 46.6365 64.8178 46.1888 65.4369C45.7411 66.0392 45.1442 66.491 44.3981 66.7922C45.4095 67.0933 46.2137 67.5702 46.8106 68.2227C47.4074 68.8753 47.7059 69.7955 47.7059 70.9835C47.7059 72.7237 47.0676 74.0371 45.7909 74.9239C44.5308 75.794 42.5245 76.229 39.7722 76.229ZM37.509 67.9718V74.0957C37.6914 74.1124 37.9069 74.1292 38.1556 74.1459C38.3711 74.1626 38.6199 74.1794 38.9017 74.1961C39.2002 74.1961 39.5401 74.1961 39.9214 74.1961C40.6344 74.1961 41.3059 74.1543 41.9359 74.0706C42.5826 73.9702 43.1463 73.8029 43.6271 73.5686C44.108 73.3344 44.4893 73.0081 44.7712 72.5898C45.0696 72.1715 45.2188 71.6445 45.2188 71.0086C45.2188 70.4398 45.111 69.9629 44.8955 69.578C44.68 69.1765 44.3649 68.8586 43.9504 68.6243C43.5525 68.39 43.0717 68.2228 42.508 68.1224C41.9443 68.022 41.3142 67.9718 40.6178 67.9718H37.509ZM37.509 66.0141H40.0458C40.6427 66.0141 41.2064 65.9723 41.737 65.8886C42.2676 65.8049 42.7235 65.6544 43.1049 65.4369C43.5028 65.2194 43.8095 64.9349 44.0251 64.5835C44.2572 64.2322 44.3732 63.7888 44.3732 63.2533C44.3732 62.7514 44.2572 62.3331 44.0251 61.9984C43.7929 61.6471 43.4696 61.371 43.0551 61.1702C42.6572 60.9527 42.1846 60.7937 41.6375 60.6933C41.0903 60.5929 40.51 60.5427 39.8966 60.5427C39.2831 60.5427 38.8023 60.5511 38.4541 60.5678C38.1059 60.5846 37.7909 60.6096 37.509 60.6431V66.0141ZM49.6104 67.4698H55.7534V69.6533H49.6104V67.4698ZM69.9601 67.3694C69.9601 68.7916 69.7612 70.0716 69.3632 71.2094C68.9819 72.3304 68.4347 73.2842 67.7218 74.0706C67.0088 74.8402 66.155 75.4343 65.1601 75.8526C64.1819 76.2541 63.0876 76.4549 61.8772 76.4549C61.1809 76.4549 60.5342 76.4131 59.9373 76.3294C59.3405 76.2457 58.8099 76.1453 58.3456 76.0282C57.898 75.9111 57.5249 75.794 57.2265 75.6769C56.928 75.543 56.7207 75.4343 56.6047 75.3506L57.2265 73.3428C57.5912 73.5268 58.13 73.7359 58.843 73.9702C59.5725 74.2045 60.4845 74.3216 61.5788 74.3216C62.4741 74.3216 63.2617 74.1794 63.9415 73.8949C64.6379 73.5937 65.2264 73.1755 65.7073 72.64C66.2047 72.1046 66.586 71.4688 66.8513 70.7326C67.1331 69.9796 67.3072 69.143 67.3736 68.2227H59.7632V66.1647H67.3239C67.2409 65.2947 67.0585 64.5082 66.7767 63.8055C66.5114 63.1027 66.1383 62.5004 65.6575 61.9984C65.1767 61.4965 64.5964 61.1116 63.9166 60.8439C63.2368 60.5595 62.4575 60.4173 61.5788 60.4173C60.4845 60.4173 59.5808 60.5344 58.8679 60.7686C58.1715 60.9861 57.6409 61.1869 57.2762 61.371L56.6544 59.4384C56.7705 59.3547 56.9694 59.246 57.2513 59.1122C57.5498 58.9783 57.9228 58.8528 58.3705 58.7357C58.8182 58.6018 59.3321 58.4931 59.9125 58.4094C60.5094 58.3257 61.156 58.2839 61.8524 58.2839C63.0627 58.2839 64.1653 58.4931 65.1601 58.9114C66.155 59.3129 67.0088 59.9069 67.7218 60.6933C68.4347 61.463 68.9819 62.4084 69.3632 63.5294C69.7612 64.6504 69.9601 65.9304 69.9601 67.3694ZM84.3879 58.6855H86.8003V76.0784H84.3879V68.0471H75.9568V76.0784H73.5444V58.6855H75.9568V65.9388H84.3879V58.6855ZM91.0804 76.0784V58.6855H101.601V60.7686H93.4928V65.9388H100.705V67.9718H93.4928V73.9953H102.222V76.0784H91.0804ZM109.865 58.5098C112.285 58.5098 114.142 58.9783 115.436 59.9153C116.745 60.8355 117.4 62.2159 117.4 64.0565C117.4 65.0604 117.218 65.9221 116.853 66.6416C116.505 67.3443 115.99 67.9216 115.311 68.3733C114.647 68.8084 113.835 69.1263 112.874 69.3271C111.912 69.5278 110.826 69.6282 109.616 69.6282H107.701V76.0784H105.288V58.9365C105.968 58.7692 106.722 58.6604 107.552 58.6102C108.397 58.5433 109.168 58.5098 109.865 58.5098ZM110.064 60.6431C109.035 60.6431 108.248 60.6682 107.701 60.7184V67.5451H109.516C110.345 67.5451 111.091 67.4949 111.755 67.3945C112.418 67.2774 112.973 67.0933 113.421 66.8424C113.885 66.5747 114.242 66.2149 114.49 65.7631C114.739 65.3114 114.864 64.7341 114.864 64.0314C114.864 63.3621 114.731 62.81 114.466 62.3749C114.217 61.9398 113.869 61.5969 113.421 61.3459C112.99 61.0782 112.484 60.8941 111.904 60.7937C111.323 60.6933 110.71 60.6431 110.064 60.6431ZM130.542 58.6855V60.7937H122.832V76.0784H120.42V58.6855H130.542ZM131.697 67.3694C131.697 65.8802 131.912 64.5668 132.344 63.429C132.791 62.2912 133.388 61.3459 134.134 60.5929C134.897 59.8233 135.776 59.246 136.771 58.8612C137.782 58.4763 138.851 58.2839 139.979 58.2839C141.089 58.2839 142.134 58.4763 143.113 58.8612C144.107 59.246 144.978 59.8233 145.724 60.5929C146.47 61.3459 147.058 62.2912 147.49 63.429C147.937 64.5668 148.161 65.8802 148.161 67.3694C148.161 68.8586 147.937 70.172 147.49 71.3098C147.058 72.4476 146.47 73.4013 145.724 74.171C144.978 74.9239 144.107 75.4928 143.113 75.8777C142.134 76.2625 141.089 76.4549 139.979 76.4549C138.851 76.4549 137.782 76.2625 136.771 75.8777C135.776 75.4928 134.897 74.9239 134.134 74.171C133.388 73.4013 132.791 72.4476 132.344 71.3098C131.912 70.172 131.697 68.8586 131.697 67.3694ZM134.234 67.3694C134.234 68.4235 134.366 69.3856 134.632 70.2557C134.897 71.109 135.27 71.8369 135.751 72.4392C136.248 73.0416 136.845 73.51 137.542 73.8447C138.254 74.1626 139.05 74.3216 139.929 74.3216C140.807 74.3216 141.595 74.1626 142.292 73.8447C142.988 73.51 143.576 73.0416 144.058 72.4392C144.555 71.8369 144.936 71.109 145.202 70.2557C145.467 69.3856 145.6 68.4235 145.6 67.3694C145.6 66.3153 145.467 65.3616 145.202 64.5082C144.936 63.6382 144.555 62.902 144.058 62.2996C143.576 61.6973 142.988 61.2371 142.292 60.9192C141.595 60.5845 140.807 60.4173 139.929 60.4173C139.05 60.4173 138.254 60.5845 137.542 60.9192C136.845 61.2371 136.248 61.6973 135.751 62.2996C135.27 62.902 134.897 63.6382 134.632 64.5082C134.366 65.3616 134.234 66.3153 134.234 67.3694Z" fill="black"/>
</svg>
